# Blender v2.75 (sub 0) OBJ File: 'Platform.blend'
# www.blender.org
o Platform_Cube
v -2.090203 -0.500000 3.500000
v -2.500000 -0.500000 3.090203
v -2.295102 -0.500000 3.445098
v -2.445098 -0.500000 3.295102
v -2.500000 -0.500000 -3.090203
v -2.090203 -0.500000 -3.500000
v -2.445098 -0.500000 -3.295102
v -2.295102 -0.500000 -3.445098
v 2.500000 -0.500000 3.090203
v 2.090203 -0.500000 3.500000
v 2.445098 -0.500000 3.295102
v 2.295102 -0.500000 3.445098
v 2.090203 -0.500000 -3.500000
v 2.500000 -0.500000 -3.090203
v 2.295102 -0.500000 -3.445098
v 2.445098 -0.500000 -3.295102
v -2.377567 0.500000 3.074085
v -2.500000 0.377567 3.090203
v -2.074085 0.500000 3.377567
v -2.090203 0.377567 3.500000
v -2.335327 0.500000 3.231726
v -2.445098 0.377567 3.295102
v -2.231726 0.500000 3.335327
v -2.295102 0.377567 3.445098
v -2.074085 0.500000 -3.377567
v -2.090203 0.377567 -3.500000
v -2.377567 0.500000 -3.074085
v -2.500000 0.377567 -3.090203
v -2.231726 0.500000 -3.335327
v -2.295102 0.377567 -3.445098
v -2.335327 0.500000 -3.231726
v -2.445098 0.377567 -3.295102
v 2.074085 0.500000 3.377567
v 2.090203 0.377567 3.500000
v 2.377567 0.500000 3.074085
v 2.500000 0.377567 3.090203
v 2.231726 0.500000 3.335327
v 2.295102 0.377567 3.445098
v 2.335327 0.500000 3.231726
v 2.445098 0.377567 3.295102
v 2.377567 0.500000 -3.074085
v 2.500000 0.377567 -3.090203
v 2.074085 0.500000 -3.377567
v 2.090203 0.377567 -3.500000
v 2.335327 0.500000 -3.231726
v 2.445098 0.377567 -3.295102
v 2.231726 0.500000 -3.335327
v 2.295102 0.377567 -3.445098
vn 0.464600 0.369200 0.804800
vn 0.500000 0.000000 0.866000
vn 0.866000 0.000000 0.500000
vn 0.804800 0.369200 0.464600
vn -0.866000 0.000000 0.500000
vn -0.804800 0.369200 0.464600
vn -0.919600 0.373700 0.121000
vn -0.991400 0.000000 0.130500
vn -0.130500 0.000000 0.991400
vn -0.121000 0.373700 0.919600
vn -0.464600 0.369200 0.804800
vn -0.500000 0.000000 0.866000
vn -0.804800 0.369200 -0.464600
vn -0.866000 0.000000 -0.500000
vn -0.991400 0.000000 -0.130500
vn -0.919600 0.373700 -0.121000
vn -0.121000 0.373700 -0.919600
vn -0.130500 0.000000 -0.991400
vn -0.500000 0.000000 -0.866000
vn -0.464600 0.369200 -0.804800
vn 0.121000 0.373700 -0.919600
vn 0.130500 0.000000 -0.991400
vn 0.121000 0.373700 0.919600
vn 0.130500 0.000000 0.991400
vn 0.464600 0.369200 -0.804800
vn 0.500000 0.000000 -0.866000
vn 0.804800 0.369200 -0.464600
vn 0.866000 0.000000 -0.500000
vn 0.991400 0.000000 0.130500
vn 0.919600 0.373700 0.121000
vn 0.919600 0.373700 -0.121000
vn 0.991400 0.000000 -0.130500
vn -0.053100 0.913300 0.403700
vn -0.212800 0.904800 0.368700
vn -0.368700 0.904800 0.212800
vn -0.403700 0.913300 0.053100
vn -0.212800 0.904800 -0.368700
vn -0.053100 0.913300 -0.403700
vn -0.368700 0.904800 -0.212800
vn -0.403700 0.913300 -0.053100
vn 0.368700 0.904800 -0.212800
vn 0.403700 0.913300 -0.053100
vn 0.212800 0.904800 -0.368700
vn 0.053100 0.913300 -0.403700
vn 0.212800 0.904800 0.368700
vn 0.053100 0.913300 0.403700
vn 0.368700 0.904800 0.212800
vn 0.403700 0.913300 0.053100
s 1
f 38//1 12//2 11//3 40//4
f 4//5 22//6 18//7 2//8
f 1//9 20//10 24//11 3//12
f 32//13 7//14 5//15 28//16
f 3//12 24//11 22//6 4//5
f 26//17 6//18 8//19 30//20
f 18//7 28//16 5//15 2//8
f 26//17 44//21 13//22 6//18
f 34//23 10//24 12//2 38//1
f 30//20 8//19 7//14 32//13
f 48//25 15//26 13//22 44//21
f 46//27 16//28 15//26 48//25
f 40//4 11//3 9//29 36//30
f 42//31 14//32 16//28 46//27
f 42//31 36//30 9//29 14//32
f 34//23 20//10 1//9 10//24
f 19//33 23//34 24//11 20//10
f 23//34 21//35 22//6 24//11
f 21//35 17//36 18//7 22//6
f 29//37 25//38 26//17 30//20
f 31//39 29//37 30//20 32//13
f 27//40 31//39 32//13 28//16
f 45//41 41//42 42//31 46//27
f 47//43 45//41 46//27 48//25
f 43//44 47//43 48//25 44//21
f 37//45 33//46 34//23 38//1
f 39//47 37//45 38//1 40//4
f 35//48 39//47 40//4 36//30
f 17//36 27//40 28//16 18//7
f 33//46 19//33 20//10 34//23
f 36//30 42//31 41//42 35//48
f 44//21 26//17 25//38 43//44
f 33//46 37//45 39//47 35//48 41//42 45//41 47//43 43//44 25//38 29//37 31//39 27//40 17//36 21//35 23//34 19//33
